#!OML:ASF I:\Actors\actors\Patient Classification 1\Patient 1\Session 1\Subject1.ASF
:FULLY-SPECIFIED
:DEGREES
1068
root -0.322852 17.5349 7.67319 6.47873 -2.53952 -7.95691
lowerback 1.61542 2.91597 4.65738
upperback -8.57451 4.28705 0.33034
thorax -9.68595 1.74912 -2.6593
lowerneck -13.1574 -0.573621 2.54267
upperneck 28.3056 -3.2109 5.88428
head 11.477 -0.434349 1.29597
rclavicle -1.43125e-014 3.4191e-014
rhumerus -22.8378 50.3172 -94.0566
rradius 93.3065
rwrist 25.948
rhand -25.6122 -31.8166
rfingers 7.12502
rthumb 0.920312 -1501.79
lclavicle -1.43125e-014 3.4191e-014
lhumerus -50.2545 -19.8885 102.75
lradius 105.67
lwrist -0.537934
lhand -44.5891 -19.1707
lfingers 7.12502
lthumb -17.3882 10.0715
rfemur 0.286958 24.2905 25.8344
rtibia 1.18461
rfoot -13.1352 -22.1467
rtoes -0.913208
lfemur 12.196 -45.8497 -20.511
ltibia -4.94469
lfoot -27.6568 55.6622
ltoes 17.5183
1069
root -0.327193 17.5351 7.68132 6.35364 -2.21172 -7.79342
lowerback 1.54411 2.77053 4.36411
upperback -8.45296 4.06528 0.367266
thorax -9.54314 1.67153 -2.43009
lowerneck -13.07 -0.706855 2.32292
upperneck 27.7589 -3.38886 6.16806
head 11.2621 -0.523572 1.40457
rclavicle -3.18055e-014 1.82882e-014
rhumerus -25.0902 47.8519 -95.5678
rradius 93.0485
rwrist 23.9562
rhand -25.4034 -32.6172
rfingers 7.12502
rthumb 1.12193 -1502.59
lclavicle -3.18055e-014 1.82882e-014
lhumerus -49.7697 -19.2918 102.361
lradius 104.515
lwrist 0.221437
lhand -44.4174 -19.8774
lfingers 7.12502
lthumb -17.223 9.37934
rfemur 0.510126 24.2003 25.7702
rtibia 1.17402
rfoot -13.2929 -22.3335
rtoes -0.641182
lfemur 12.422 -46.0288 -20.8565
ltibia -4.98377
lfoot -27.2664 55.6587
ltoes 16.9417
1070
root -0.333343 17.535 7.6842 6.21878 -1.97951 -7.64808
lowerback 1.59489 2.65613 4.07057
upperback -8.35365 3.89234 0.38654
thorax -9.49175 1.61309 -2.23183
lowerneck -13.0597 -0.863563 1.84654
upperneck 27.3264 -3.62517 6.72725
head 11.1212 -0.627513 1.65178
rclavicle -9.93923e-015 -4.37326e-014
rhumerus -27.2131 45.1302 -96.8154
rradius 92.7074
rwrist 22.7632
rhand -25.3062 -32.7906
rfingers 7.12502
rthumb 1.21584 -1502.77
lclavicle -9.93923e-015 -4.37326e-014
lhumerus -49.3433 -18.7349 101.918
lradius 103.227
lwrist 0.748927
lhand -44.2007 -20.5571
lfingers 7.12502
lthumb -17.0144 8.71774
rfemur 0.659714 24.1817 25.7199
rtibia 1.25471
rfoot -13.3793 -22.5213
rtoes -0.608079
lfemur 12.6446 -46.2044 -21.163
ltibia -5.01789
lfoot -27.1246 55.6571
ltoes 16.7693
1071
root -0.339388 17.5328 7.66418 6.19033 -1.85019 -8.09926
lowerback 1.99025 2.59074 4.41442
upperback -8.38427 3.86248 0.511575
thorax -9.75484 1.5686 -2.31028
lowerneck -12.9567 -1.04331 1.37575
upperneck 26.7613 -3.90389 7.37795
head 10.9201 -0.745936 1.9221
rclavicle 2.68359e-015 1.03368e-014
rhumerus -29.2746 42.1848 -97.8695
rradius 92.3025
rwrist 21.9107
rhand -25.1228 -32.6392
rfingers 7.12502
rthumb 1.393 -1502.61
lclavicle 2.68359e-015 1.03368e-014
lhumerus -48.9813 -18.2214 101.386
lradius 101.742
lwrist 0.570151
lhand -43.9819 -20.9183
lfingers 7.12502
lthumb -16.8038 8.37459
rfemur 0.391383 24.3636 26.2582
rtibia 1.6651
rfoot -13.365 -22.7385
rtoes -0.643382
lfemur 12.3313 -45.9722 -20.2327
ltibia -5.08953
lfoot -26.7228 55.3857
ltoes 16.6039
1072
root -0.337114 17.5231 7.68303 6.22623 -1.33717 -8.41012
lowerback 1.61795 2.41287 4.82875
upperback -8.30057 3.62993 0.573197
thorax -9.43877 1.43673 -2.43055
lowerneck -12.8164 -1.17477 1.26429
upperneck 26.2159 -4.11042 7.7169
head 10.7078 -0.833628 2.02606
rclavicle 2.60408e-014 -1.90833e-014
rhumerus -31.185 39.3176 -98.6182
rradius 91.8019
rwrist 20.9879
rhand -24.1674 -32.7389
rfingers 7.12502
rthumb 2.31565 -1502.71
lclavicle 2.60408e-014 -1.90833e-014
lhumerus -48.6147 -17.6498 100.78
lradius 100.035
lwrist -0.0281319
lhand -43.9138 -21.3276
lfingers 7.12502
lthumb -16.7382 7.97079
rfemur 0.499144 23.7159 26.669
rtibia 1.56127
rfoot -13.1956 -22.5916
rtoes -1.12465
lfemur 12.3353 -45.9704 -19.8528
ltibia -5.22028
lfoot -25.805 55.212
ltoes 15.7927
1073
root -0.342167 17.5253 7.69362 6.21459 -0.673583 -8.12651
lowerback 1.43138 2.16836 4.5311
upperback -8.24523 3.26253 0.508564
thorax -9.30165 1.28177 -2.29143
lowerneck -12.7025 -1.32182 0.973075
upperneck 25.7219 -4.27971 7.99105
head 10.521 -0.928357 2.14289
rclavicle 1.30204e-014 1.59028e-014
rhumerus -33.0428 36.6275 -99.1046
rradius 91.2026
rwrist 19.97
rhand -23.0296 -33.2115
rfingers 7.12502
rthumb 3.41454 -1503.16
lclavicle 1.30204e-014 1.59028e-014
lhumerus -48.2724 -17.0676 100.17
lradius 98.1806
lwrist -0.364932
lhand -43.8372 -21.9364
lfingers 7.12502
lthumb -16.6645 7.36822
rfemur 0.65642 23.7087 26.4665
rtibia 1.43307
rfoot -13.34 -23.2307
rtoes -0.821504
lfemur 12.0382 -46.0324 -19.8993
ltibia -5.15932
lfoot -24.7215 54.8317
ltoes 15.0359
1074
root -0.340241 17.5245 7.69498 6.31623 0.0501205 -7.87831
lowerback 1.35484 1.91109 4.38405
upperback -8.30395 2.89922 0.434801
thorax -9.3486 1.10973 -2.25461
lowerneck -12.494 -1.49419 0.621691
upperneck 25.2015 -4.47038 8.29056
head 10.3113 -1.0393 2.27589
rclavicle 1.33186e-014 1.90833e-014
rhumerus -34.5967 33.5466 -99.0042
rradius 90.3578
rwrist 20.2049
rhand -20.6156 -32.7435
rfingers 7.12502
rthumb 5.74547 -1502.65
lclavicle 1.33186e-014 1.90833e-014
lhumerus -48.0315 -16.473 99.5599
lradius 96.2757
lwrist -0.197837
lhand -43.5795 -22.5983
lfingers 7.12502
lthumb -16.4164 6.72705
rfemur 0.569555 23.7197 26.1797
rtibia 1.40594
rfoot -13.6133 -23.8919
rtoes -0.148887
lfemur 11.2796 -45.9706 -19.5861
ltibia -4.95645
lfoot -23.4737 54.2139
ltoes 14.039
1075
root -0.339992 17.5197 7.69443 6.44788 0.59506 -7.91576
lowerback 1.29376 1.70509 4.47262
upperback -8.38291 2.63003 0.469215
thorax -9.41809 0.969863 -2.24319
lowerneck -12.2888 -1.63855 0.244569
upperneck 24.7057 -4.63004 8.63983
head 10.1149 -1.132 2.43534
rclavicle 1.72943e-014 -7.95139e-016
rhumerus -36.2185 31.1653 -99.0505
rradius 89.3736
rwrist 19.3816
rhand -19.5448 -33.0028
rfingers 7.12502
rthumb 6.77929 -1502.87
lclavicle 1.72943e-014 -7.95139e-016
lhumerus -47.8076 -15.8071 98.934
lradius 94.3106
lwrist 0.40432
lhand -43.2611 -23.4927
lfingers 7.12502
lthumb -16.1098 5.85768
rfemur 0.406507 23.7619 26.2139
rtibia 1.48064
rfoot -13.8837 -24.3413
rtoes 0.443496
lfemur 10.4829 -45.52 -18.8347
ltibia -4.8893
lfoot -22.0652 53.4359
ltoes 12.7812
1076
root -0.33885 17.5248 7.71314 6.16472 0.411186 -7.98988
lowerback 1.32949 1.71509 4.52376
upperback -8.23222 2.64819 0.540393
thorax -9.27176 0.983708 -2.1961
lowerneck -12.0589 -1.71746 0.00124039
upperneck 24.1439 -4.68411 8.85441
head 9.88081 -1.18166 2.53534
rclavicle -9.74045e-015 -3.18055e-015
rhumerus -37.659 29.2193 -99.0177
rradius 88.1338
rwrist 18.3333
rhand -19.4346 -33.1239
rfingers 7.12502
rthumb 6.88565 -1502.99
lclavicle -9.74045e-015 -3.18055e-015
lhumerus -47.4952 -15.0557 98.2728
lradius 92.2749
lwrist 1.26578
lhand -42.8466 -24.3885
lfingers 7.12502
lthumb -15.7106 4.99375
rfemur 0.771756 23.7398 26.4885
rtibia 1.57527
rfoot -13.9052 -24.1294
rtoes 0.400153
lfemur 11.3619 -45.6409 -19.3715
ltibia -5.12153
lfoot -22.3502 53.7494
ltoes 13.017
1077
root -0.337961 17.5287 7.72486 5.9704 0.311329 -7.98401
lowerback 1.3372 1.70133 4.52255
upperback -8.09474 2.62701 0.574703
thorax -9.12644 0.980429 -2.15489
lowerneck -11.8346 -1.75533 -0.0883708
upperneck 23.5641 -4.66225 8.87241
head 9.63125 -1.20417 2.54838
rclavicle -9.14409e-015 -3.33958e-014
rhumerus -39.0542 27.4466 -98.8931
rradius 86.7137
rwrist 17.6013
rhand -21.9137 -33.4834
rfingers 7.12502
rthumb 4.49213 -1503.42
lclavicle -9.14409e-015 -3.33958e-014
lhumerus -47.1404 -14.2647 97.5618
lradius 90.1671
lwrist 2.02089
lhand -42.3379 -25.0211
lfingers 7.12502
lthumb -15.2207 4.39895
rfemur 0.986826 23.626 26.5986
rtibia 1.65671
rfoot -13.8021 -24.0067
rtoes 0.0504572
lfemur 11.9633 -45.8017 -19.8337
ltibia -5.22679
lfoot -22.6468 53.9824
ltoes 13.2807
1078
root -0.335933 17.5306 7.73541 5.84604 0.206544 -7.93221
lowerback 1.30592 1.70118 4.50362
upperback -7.99285 2.6202 0.583576
thorax -8.99616 0.98355 -2.13128
lowerneck -11.6078 -1.80481 -0.229986
upperneck 23.0172 -4.66067 8.93726
head 9.39858 -1.23423 2.58543
rclavicle 1.68967e-015 4.77083e-015
rhumerus -40.448 25.8469 -98.7307
rradius 85.1012
rwrist 17.1424
rhand -23.4547 -33.3147
rfingers 7.12502
rthumb 3.00396 -1503.27
lclavicle 1.68967e-015 4.77083e-015
lhumerus -46.8373 -13.4364 96.8362
lradius 87.9486
lwrist 2.48363
lhand -41.8246 -25.6145
lfingers 7.12502
lthumb -14.7262 3.84238
rfemur 1.13979 23.5553 26.6144
rtibia 1.67664
rfoot -13.618 -23.9541
rtoes -0.5178
lfemur 12.5265 -46.1815 -20.3837
ltibia -5.26717
lfoot -23.2148 54.3778
ltoes 13.7399
1079
root -0.33644 17.5312 7.74093 5.81411 0.101066 -7.89043
lowerback 1.29048 1.66659 4.42442
upperback -7.95634 2.57109 0.648445
thorax -8.95533 0.969494 -2.01322
lowerneck -11.4531 -1.82876 -0.412264
upperneck 22.6054 -4.6328 9.01419
head 9.22836 -1.2475 2.63915
rclavicle 2.24627e-014 0
rhumerus -41.6717 24.3917 -98.3793
rradius 83.2543
rwrist 17.3401
rhand -23.8309 -33.0289
rfingers 7.12502
rthumb 2.64067 -1502.99
lclavicle 2.24627e-014 0
lhumerus -46.6024 -12.4235 96.1019
lradius 85.6535
lwrist 2.62629
lhand -41.4919 -26.3072
lfingers 7.12502
lthumb -14.4056 3.17292
rfemur 1.18669 23.6411 26.6126
rtibia 1.69984
rfoot -13.5401 -23.9728
rtoes -0.616147
lfemur 12.7611 -46.3002 -20.6332
ltibia -5.28768
lfoot -23.5442 54.5428
ltoes 14.0524
1080
root -0.3411 17.5241 7.72025 6.16736 0.563049 -7.80054
lowerback 1.28895 1.42707 4.32153
upperback -8.12385 2.25348 0.707441
thorax -9.16648 0.816584 -1.86907
lowerneck -11.4053 -1.81331 -0.468754
upperneck 22.3626 -4.55911 8.94127
head 9.12924 -1.2355 2.62744
rclavicle 1.21259e-014 1.59028e-014
rhumerus -42.7462 23.0118 -97.92
rradius 81.2171
rwrist 17.9218
rhand -23.7076 -32.7173
rfingers 7.12502
rthumb 2.75975 -1502.68
lclavicle 1.21259e-014 1.59028e-014
lhumerus -46.3658 -11.3073 95.3385
lradius 83.2953
lwrist 2.60799
lhand -41.2978 -26.7695
lfingers 7.12502
lthumb -14.2186 2.72379
rfemur 0.685581 23.8243 26.3441
rtibia 1.75873
rfoot -13.6679 -24.5407
rtoes -0.037249
lfemur 11.1944 -45.458 -19.4471
ltibia -5.01451
lfoot -22.085 53.358
ltoes 12.9977
1081
root -0.338941 17.5233 7.72233 6.19649 0.391304 -7.75428
lowerback 1.30464 1.43456 4.35653
upperback -8.13436 2.26629 0.70261
thorax -9.18559 0.819238 -1.8954
lowerneck -11.3133 -1.8297 -0.473704
upperneck 22.0815 -4.53944 8.87954
head 9.01158 -1.24532 2.60432
rclavicle -1.68967e-014 -7.15625e-015
rhumerus -43.7694 21.6185 -97.493
rradius 79.128
rwrist 18.1057
rhand -23.5078 -32.3839
rfingers 7.12502
rthumb 2.95273 -1502.34
lclavicle -1.68967e-014 -7.15625e-015
lhumerus -46.1682 -10.3625 94.5773
lradius 80.9266
lwrist 2.78304
lhand -41.0512 -26.8405
lfingers 7.12502
lthumb -13.9809 2.66941
rfemur 0.635373 23.8311 26.2622
rtibia 1.78661
rfoot -13.5428 -24.4253
rtoes -0.288835
lfemur 11.1716 -45.2856 -19.489
ltibia -5.00428
lfoot -22.2159 53.2843
ltoes 13.232
